<svg height="458pt" viewBox="-12 0 458 458.6" width="458pt" xmlns="http://www.w3.org/2000/svg"><path d="m103.699219 178.601562c-22.097657 0-40 17.898438-40 40v16h80v-16c0-22.101562-17.898438-40-40-40zm0 0"/><path d="m263.699219 74.601562v48h-20v-39.203124c0-28.898438-19.699219-52.296876-44-52.296876s-44 23.398438-44 52.296876v39.203124h-20v-48c0-35.300781 28.699219-64 64-64s64 28.699219 64 64zm0 0"/><path d="m39.699219 234.601562h8v-16c0-30.902343 25.101562-56 56-56 30.902343 0 56 25.097657 56 56v16h40c4.199219 0 7.699219 3.199219 8 7.398438l15.402343 216.601562h136.597657v-320h-320zm312 216h-16v-16h16zm0-24h-16v-16h16zm-40-272h32c4.402343 0 8 3.597657 8 8v32h-16v-24h-24zm0 280h16v16h-16zm0 0"/><path d="m15.101562 250.601562-14.800781 208h206.800781l-14.902343-208zm160.597657 200h-16v-16h16zm24 0h-16v-16h16zm0-24h-16v-16h16zm0 0"/><path d="m396.101562 42.601562c0 2.429688-1.972656 4.398438-4.402343 4.398438-2.429688 0-4.398438-1.96875-4.398438-4.398438 0-2.429687 1.96875-4.402343 4.398438-4.402343 2.429687 0 4.402343 1.972656 4.402343 4.402343zm0 0"/><path d="m426.300781 106.601562c-10.101562 0-10.601562-.5-10.601562-10.601562 0-4.398438-3.597657-8-8-8-4.398438 0-8 3.601562-8 8 0 10.101562-.5 10.601562-10.597657 10.601562-4.402343 0-8 3.597657-8 8 0 4.398438 3.597657 8 8 8 10.097657 0 10.597657.5 10.597657 10.597657 0 4.402343 3.601562 8 8 8 4.402343 0 8-3.597657 8-8 0-10.097657.5-10.597657 10.601562-10.597657 4.398438 0 8-3.601562 8-8 0-4.402343-3.601562-8-8-8zm0 0"/><path d="m301.101562 34.601562c10.097657 0 10.597657.5 10.597657 10.597657 0 4.402343 3.601562 8 8 8 4.402343 0 8-3.597657 8-8 0-10.097657.5-10.597657 10.601562-10.597657 4.398438 0 8-3.601562 8-8 0-4.402343-3.601562-8-8-8-10.101562 0-10.601562-.5-10.601562-10.601562 0-4.398438-3.597657-8-8-8-4.398438 0-8 3.601562-8 8 0 10.101562-.5 10.601562-10.597657 10.601562-4.402343 0-8 3.597657-8 8 0 4.398438 3.597657 8 8 8zm0 0"/></svg>