<?xml version="1.0" encoding="iso-8859-1"?>
<!-- Generator: Adobe Illustrator 19.0.0, SVG Export Plug-In . SVG Version: 6.00 Build 0)  -->
<svg version="1.1" id="Capa_1" xmlns="http://www.w3.org/2000/svg" xmlns:xlink="http://www.w3.org/1999/xlink" x="0px" y="0px"
	 viewBox="0 0 512.011 512.011" style="enable-background:new 0 0 512.011 512.011;" xml:space="preserve">
<g>
	<g>
		<path d="M128.006,16.006c-2.688,0.736-5.248,1.408-7.936,2.112l-112,64c-6.4,3.648-9.472,11.2-7.456,18.304l32,112
			c2.368,8.288,10.88,13.216,19.264,11.136l12.128-3.072v-28.48c0-91.52,39.456-146.752,70.272-176H128.006z"/>
	</g>
</g>
<g>
	<g>
		<path d="M503.942,82.118l-112-64c-2.688-0.704-5.248-1.376-7.936-2.112h-6.304c30.848,29.248,70.304,84.512,70.304,176v28.48
			l12.128,3.04c8.352,2.08,16.896-2.848,19.264-11.136l32-112C513.414,93.318,510.342,85.766,503.942,82.118z"/>
	</g>
</g>
<g>
	<g>
		<path d="M192.006,16.006c0,35.296,28.704,64,64,64c35.264,0,64-28.704,64-64H192.006z"/>
	</g>
</g>
<g>
	<g>
		<path d="M350.182,34.022c-8.448,44.32-47.392,77.984-94.176,77.984s-85.728-33.664-94.176-77.984
			c-26.336,22.688-65.824,71.2-65.824,157.984v20.512v251.488c0,17.664,14.336,32,32,32h256c17.664,0,32-14.336,32-32V212.518
			v-20.512C416.006,105.254,376.518,56.742,350.182,34.022z"/>
	</g>
</g>
<g>
</g>
<g>
</g>
<g>
</g>
<g>
</g>
<g>
</g>
<g>
</g>
<g>
</g>
<g>
</g>
<g>
</g>
<g>
</g>
<g>
</g>
<g>
</g>
<g>
</g>
<g>
</g>
<g>
</g>
</svg>
