<svg id="Capa_1" enable-background="new 0 0 508.372 508.372" height="512" viewBox="0 0 508.372 508.372" width="512" xmlns="http://www.w3.org/2000/svg"><g><path d="m478.744 276.78-105.252-24.05c-12.152-2.548-23.594-7.742-33.51-15.213l-18.103-13.639-44.82 44.819-21.213-21.213 41.836-41.836-46.256-34.851-51.93 51.93-21.213-21.213 48.947-48.947-7.807-5.882c-61.522 15.667-121.633 16.489-180.1 0 0 0-39.324 85.193-39.324 215.001h167.531v-37.724l122.709 34.975c6.416 1.824 13.054 2.749 19.725 2.749l198.407-10.962v-26.752c.001-20.113-11.512-38.451-29.627-47.192z"/></g></svg>