<svg height="488pt" viewBox="-5 0 488 488.00206" width="488pt" xmlns="http://www.w3.org/2000/svg"><path d="m407.296875 336h48c4.417969 0 8-3.582031 8-8v-29.246094c3.359375-2.167968 6.296875-4.925781 8.671875-8.136718 6.296875-8.402344 8.191406-19.304688 5.097656-29.335938l-59.855468-197.519531c-7.066407-23.675781-28.886719-39.867188-53.59375-39.761719h-57.007813l-21.65625-21.65625c-.121094-.121094-.289063-.160156-.414063-.28125-.535156-.46875-1.128906-.867188-1.769531-1.175781-.152343-.078125-.273437-.222657-.425781-.285157-.148438-.066406-.207031 0-.292969-.058593-.847656-.332031-1.746093-.5156252-2.65625-.542969h-80.496093c-1.867188.09375-3.640626.839844-5.015626 2.105469l-.28125.269531-21.617187 21.625h-57.078125c-24.710938-.109375-46.535156 16.082031-53.601562 39.761719l-59.847657 197.519531c-3.09375 10.03125-1.199219 20.933594 5.097657 29.335938 2.394531 3.230468 5.359374 6 8.742187 8.175781v29.207031c0 4.417969 3.582031 8 8 8h48c4.417969 0 8-3.582031 8-8v-27.144531c13.585937-6.386719 21.175781-21.117188 18.488281-35.886719l-10.09375-55.535156 46.292969-81.320313 12 78.152344c3.304687 21.546875 1.023437 43.582031-6.621094 64l-59.5625 158.917969c-1.472656 3.925781.335938 8.328125 4.144531 10.082031l104 48c3.042969 1.402344 6.636719.765625 9.007813-1.601563l42.34375-42.351562 42.34375 42.34375c2.371094 2.367188 5.96875 3.003906 9.007813 1.601562l104-48c3.8125-1.753906 5.621093-6.15625 4.144531-10.082031l-59.582031-158.878906c-7.648438-20.417969-9.925782-42.453125-6.625-64l12-78.058594 46.238281 81.226563-10.085938 55.503906c-2.6875 14.800781 4.933594 29.550781 18.558594 35.925781v27.105469c0 4.417969 3.582031 8 8 8zm40-32v16h-32v-16zm-208-288h20.6875l-20.6875 20.6875-20.6875-20.6875zm-176 304h-32v-16h32zm9.046875-115.960938c-.929688 1.632813-1.253906 3.542969-.917969 5.394532l10.617188 58.398437c.90625 4.992188-.449219 10.125-3.699219 14.019531-3.25 3.894532-8.0625 6.148438-13.132812 6.148438h-32.066407c-5.417969 0-10.515625-2.566406-13.746093-6.917969-3.226563-4.351562-4.203126-9.976562-2.628907-15.160156l59.855469-197.523437c5.046875-16.910157 20.632812-28.472657 38.28125-28.398438h5.527344l9.640625 62.648438zm158.953125 224.648438-41.710937 41.710938-92.183594-42.550782 56.96875-151.925781c8.605468-23 11.171875-47.816406 7.453125-72.089844l-15.519531-100.863281-9.679688-62.96875h35.359375l13.65625 13.65625c3.140625 3.03125 8.128906 2.988281 11.214844-.097656 3.085937-3.085938 3.128906-8.074219.097656-11.214844l-10.34375-10.34375 12.6875-12.6875 32 32zm92.929687-152.800781 56.96875 151.929687-92.1875 42.582032-41.710937-41.710938v-377.375l32-32 12.6875 12.6875-10.34375 10.34375c-2.078125 2.007812-2.914063 4.984375-2.179687 7.78125.730468 2.796875 2.914062 4.980469 5.710937 5.710938 2.796875.734374 5.773437-.101563 7.78125-2.179688l13.65625-13.65625h35.296875l-9.6875 62.96875c-.007812.140625-.007812.28125 0 .421875l-15.449219 100.441406c-3.71875 24.273438-1.152343 49.089844 7.457031 72.089844zm81.949219-71.847657-57.671875-101.296874 9.65625-62.742188h5.457032c17.648437-.074219 33.234374 11.488281 38.28125 28.398438l59.855468 197.523437c1.574219 5.183594.597656 10.808594-2.632812 15.160156-3.226563 4.351563-8.324219 6.917969-13.742188 6.917969h-32.066406c-5.066406-.011719-9.867188-2.265625-13.109375-6.160156-3.242187-3.890625-4.59375-9.023438-3.691406-14.007813l10.617187-58.398437c.328125-1.855469-.007812-3.765625-.953125-5.394532zm0 0"/></svg>