<svg id="Capa_1" enable-background="new 0 0 512 512" height="512" viewBox="0 0 512 512" width="512" xmlns="http://www.w3.org/2000/svg"><g><path d="m372.681 491.107c55.763-20.981 86.052-50.219 86.052-50.219.001-104.289-125.82-248.888-125.82-248.888l30.968-94.098c0-15.488-6.022-27.195-15.84-35.202v-62.7h-30v50.538c-4.1-.583-8.356-.884-12.73-.884-20.702 0-49.311 16.63-49.311 16.63s-28.609-16.63-49.311-16.63c-4.374 0-8.63.301-12.731.884v-50.538h-30v62.7c-9.817 8.007-15.839 19.714-15.839 35.202l30.968 94.098s-125.821 144.149-125.821 248.888c0 0 30.29 29.239 86.054 50.219 3.591-90.184 48.886-169.345 50.89-172.804l25.955 15.045c-.463.801-46.477 81.448-47.065 167.329 25.238 6.782 54.298 11.323 86.9 11.323s61.663-4.541 86.9-11.323c-.586-85.865-46.399-166.034-46.865-166.839l25.949-15.055c1.998 3.44 47.119 82.169 50.697 172.324z"/></g></svg>